<svg width="242" height="50" viewBox="0 0 242 50" fill="none" xmlns="http://www.w3.org/2000/svg">
<rect width="242" height="50" fill="#DA1F39"/>
<path d="M17.49 24.96C17.49 24.3533 17.5973 23.756 17.812 23.168C18.0267 22.58 18.3393 22.048 18.75 21.572C19.17 21.096 19.674 20.718 20.262 20.438C20.8593 20.1487 21.5407 20.004 22.306 20.004C23.202 20.004 23.9767 20.2047 24.63 20.606C25.2833 21.0073 25.7687 21.53 26.086 22.174L24.854 23C24.6673 22.5987 24.4293 22.286 24.14 22.062C23.86 21.8287 23.552 21.6653 23.216 21.572C22.8893 21.4693 22.5673 21.418 22.25 21.418C21.7273 21.418 21.27 21.5253 20.878 21.74C20.486 21.9453 20.1547 22.2207 19.884 22.566C19.6227 22.9113 19.422 23.2987 19.282 23.728C19.1513 24.1573 19.086 24.5867 19.086 25.016C19.086 25.66 19.2213 26.262 19.492 26.822C19.772 27.3727 20.15 27.8207 20.626 28.166C21.1113 28.502 21.6667 28.67 22.292 28.67C22.6093 28.67 22.9407 28.614 23.286 28.502C23.6313 28.39 23.9487 28.2173 24.238 27.984C24.5273 27.7413 24.7607 27.424 24.938 27.032L26.24 27.774C26.0347 28.2687 25.7127 28.6887 25.274 29.034C24.8447 29.3793 24.3593 29.6407 23.818 29.818C23.286 29.9953 22.7587 30.084 22.236 30.084C21.536 30.084 20.8967 29.9393 20.318 29.65C19.7393 29.3513 19.24 28.9593 18.82 28.474C18.4 27.9793 18.0733 27.4287 17.84 26.822C17.6067 26.206 17.49 25.5853 17.49 24.96ZM27.7043 30V20.06H35.5583V30H33.9763V21.446H29.2723V30H27.7043ZM41.9375 30.07C41.2282 30.07 40.5795 29.93 39.9915 29.65C39.4128 29.37 38.9135 28.992 38.4935 28.516C38.0735 28.0307 37.7468 27.4893 37.5135 26.892C37.2895 26.2853 37.1775 25.6647 37.1775 25.03C37.1775 24.3673 37.2988 23.7373 37.5415 23.14C37.7842 22.5333 38.1202 21.9967 38.5495 21.53C38.9788 21.054 39.4828 20.6807 40.0615 20.41C40.6495 20.13 41.2842 19.99 41.9655 19.99C42.6748 19.99 43.3188 20.1347 43.8975 20.424C44.4855 20.7133 44.9848 21.1007 45.3955 21.586C45.8155 22.0713 46.1375 22.6127 46.3615 23.21C46.5948 23.8073 46.7115 24.4187 46.7115 25.044C46.7115 25.7067 46.5902 26.3413 46.3475 26.948C46.1142 27.5453 45.7828 28.082 45.3535 28.558C44.9242 29.0247 44.4155 29.3933 43.8275 29.664C43.2488 29.9347 42.6188 30.07 41.9375 30.07ZM38.7735 25.03C38.7735 25.6553 38.9042 26.248 39.1655 26.808C39.4268 27.3587 39.7908 27.8067 40.2575 28.152C40.7335 28.488 41.2982 28.656 41.9515 28.656C42.4462 28.656 42.8895 28.5533 43.2815 28.348C43.6735 28.1427 44.0048 27.8673 44.2755 27.522C44.5462 27.1673 44.7515 26.7753 44.8915 26.346C45.0315 25.9167 45.1015 25.478 45.1015 25.03C45.1015 24.4047 44.9708 23.8167 44.7095 23.266C44.4575 22.7153 44.0935 22.272 43.6175 21.936C43.1415 21.5907 42.5862 21.418 41.9515 21.418C41.4475 21.418 40.9995 21.5207 40.6075 21.726C40.2155 21.9313 39.8842 22.2067 39.6135 22.552C39.3428 22.8973 39.1328 23.2847 38.9835 23.714C38.8435 24.1433 38.7735 24.582 38.7735 25.03ZM56.1468 27.438C56.1468 27.97 56.0068 28.4273 55.7268 28.81C55.4468 29.1927 55.0735 29.4867 54.6068 29.692C54.1495 29.8973 53.6408 30 53.0808 30H48.3348V20.06H53.4588C53.9255 20.06 54.3268 20.186 54.6628 20.438C54.9988 20.6807 55.2602 20.998 55.4468 21.39C55.6335 21.782 55.7268 22.1833 55.7268 22.594C55.7268 23.0793 55.6008 23.5367 55.3488 23.966C55.1062 24.386 54.7562 24.6987 54.2988 24.904C54.8588 25.072 55.3068 25.38 55.6428 25.828C55.9788 26.2667 56.1468 26.8033 56.1468 27.438ZM49.9028 21.418V24.344H52.7868C53.1788 24.344 53.5055 24.2087 53.7668 23.938C54.0282 23.658 54.1588 23.308 54.1588 22.888C54.1588 22.4587 54.0375 22.1087 53.7948 21.838C53.5522 21.558 53.2442 21.418 52.8708 21.418H49.9028ZM54.5368 27.144C54.5368 26.7333 54.4062 26.374 54.1448 26.066C53.8928 25.758 53.5708 25.604 53.1788 25.604H49.9028V28.642H53.0808C53.4915 28.642 53.8368 28.4973 54.1168 28.208C54.3968 27.9093 54.5368 27.5547 54.5368 27.144ZM57.7821 30V20.06H59.3501V30H57.7821ZM60.9666 24.96C60.9666 24.3533 61.0739 23.756 61.2886 23.168C61.5032 22.58 61.8159 22.048 62.2266 21.572C62.6466 21.096 63.1506 20.718 63.7386 20.438C64.3359 20.1487 65.0172 20.004 65.7826 20.004C66.6786 20.004 67.4532 20.2047 68.1066 20.606C68.7599 21.0073 69.2452 21.53 69.5626 22.174L68.3306 23C68.1439 22.5987 67.9059 22.286 67.6166 22.062C67.3366 21.8287 67.0286 21.6653 66.6926 21.572C66.3659 21.4693 66.0439 21.418 65.7266 21.418C65.2039 21.418 64.7466 21.5253 64.3546 21.74C63.9626 21.9453 63.6312 22.2207 63.3606 22.566C63.0992 22.9113 62.8986 23.2987 62.7586 23.728C62.6279 24.1573 62.5626 24.5867 62.5626 25.016C62.5626 25.66 62.6979 26.262 62.9686 26.822C63.2486 27.3727 63.6266 27.8207 64.1026 28.166C64.5879 28.502 65.1432 28.67 65.7686 28.67C66.0859 28.67 66.4172 28.614 66.7626 28.502C67.1079 28.39 67.4252 28.2173 67.7146 27.984C68.0039 27.7413 68.2372 27.424 68.4146 27.032L69.7166 27.774C69.5112 28.2687 69.1892 28.6887 68.7506 29.034C68.3212 29.3793 67.8359 29.6407 67.2946 29.818C66.7626 29.9953 66.2352 30.084 65.7126 30.084C65.0126 30.084 64.3732 29.9393 63.7946 29.65C63.2159 29.3513 62.7166 28.9593 62.2966 28.474C61.8766 27.9793 61.5499 27.4287 61.3166 26.822C61.0832 26.206 60.9666 25.5853 60.9666 24.96ZM78.4609 21.446H75.1569V30H73.5749V21.446H70.2569V20.06H78.4609V21.446ZM79.8638 30V20.06H81.4318V27.788L86.7378 20.06H88.2078V30H86.6398V22.398L81.3898 30H79.8638ZM97.8066 21.446H94.5026V30H92.9206V21.446H89.6026V20.06H97.8066V21.446ZM99.2095 30V20.06H100.778V27.788L106.084 20.06H107.554V30H105.986V22.398L100.736 30H99.2095ZM113.331 30V20.06H121.185V30H119.603V21.446H114.899V30H113.331ZM123.434 30V20.06H127.606C128.054 20.06 128.465 20.1533 128.838 20.34C129.221 20.5267 129.548 20.774 129.818 21.082C130.098 21.39 130.313 21.7353 130.462 22.118C130.612 22.5007 130.686 22.8927 130.686 23.294C130.686 23.854 130.56 24.3813 130.308 24.876C130.056 25.3707 129.706 25.772 129.258 26.08C128.81 26.388 128.288 26.542 127.69 26.542H125.002V30H123.434ZM125.002 25.156H127.592C128.031 25.156 128.39 24.9787 128.67 24.624C128.95 24.2693 129.09 23.826 129.09 23.294C129.09 22.93 129.016 22.6127 128.866 22.342C128.717 22.062 128.521 21.8427 128.278 21.684C128.045 21.5253 127.788 21.446 127.508 21.446H125.002V25.156ZM136.287 30.07C135.578 30.07 134.929 29.93 134.341 29.65C133.762 29.37 133.263 28.992 132.843 28.516C132.423 28.0307 132.096 27.4893 131.863 26.892C131.639 26.2853 131.527 25.6647 131.527 25.03C131.527 24.3673 131.648 23.7373 131.891 23.14C132.134 22.5333 132.47 21.9967 132.899 21.53C133.328 21.054 133.832 20.6807 134.411 20.41C134.999 20.13 135.634 19.99 136.315 19.99C137.024 19.99 137.668 20.1347 138.247 20.424C138.835 20.7133 139.334 21.1007 139.745 21.586C140.165 22.0713 140.487 22.6127 140.711 23.21C140.944 23.8073 141.061 24.4187 141.061 25.044C141.061 25.7067 140.94 26.3413 140.697 26.948C140.464 27.5453 140.132 28.082 139.703 28.558C139.274 29.0247 138.765 29.3933 138.177 29.664C137.598 29.9347 136.968 30.07 136.287 30.07ZM133.123 25.03C133.123 25.6553 133.254 26.248 133.515 26.808C133.776 27.3587 134.14 27.8067 134.607 28.152C135.083 28.488 135.648 28.656 136.301 28.656C136.796 28.656 137.239 28.5533 137.631 28.348C138.023 28.1427 138.354 27.8673 138.625 27.522C138.896 27.1673 139.101 26.7753 139.241 26.346C139.381 25.9167 139.451 25.478 139.451 25.03C139.451 24.4047 139.32 23.8167 139.059 23.266C138.807 22.7153 138.443 22.272 137.967 21.936C137.491 21.5907 136.936 21.418 136.301 21.418C135.797 21.418 135.349 21.5207 134.957 21.726C134.565 21.9313 134.234 22.2067 133.963 22.552C133.692 22.8973 133.482 23.2847 133.333 23.714C133.193 24.1433 133.123 24.582 133.123 25.03ZM154.305 20.06V30H152.723V25.618H147.711V30H146.143V20.06H147.711V24.218H152.723V20.06H154.305ZM159.418 20.06H160.902L164.766 30H163.114L162.064 27.298H158.228L157.192 30H155.526L159.418 20.06ZM161.756 26.136L160.16 21.782L158.508 26.136H161.756ZM165.715 30L168.235 25.926C167.582 25.7393 167.073 25.3893 166.709 24.876C166.345 24.3627 166.163 23.756 166.163 23.056C166.163 22.4867 166.298 21.978 166.569 21.53C166.849 21.082 167.236 20.7273 167.731 20.466C168.226 20.1953 168.8 20.06 169.453 20.06H173.051V30H171.483V26.122H169.845L167.521 30H165.715ZM169.621 24.764H171.483V21.418H169.663C169.131 21.418 168.683 21.5627 168.319 21.852C167.955 22.132 167.773 22.5333 167.773 23.056C167.773 23.5787 167.936 23.994 168.263 24.302C168.599 24.61 169.052 24.764 169.621 24.764ZM183.104 27.438C183.104 27.97 182.964 28.4273 182.684 28.81C182.404 29.1927 182.031 29.4867 181.564 29.692C181.107 29.8973 180.598 30 180.038 30H175.292V20.06H180.416C180.883 20.06 181.284 20.186 181.62 20.438C181.956 20.6807 182.217 20.998 182.404 21.39C182.591 21.782 182.684 22.1833 182.684 22.594C182.684 23.0793 182.558 23.5367 182.306 23.966C182.063 24.386 181.713 24.6987 181.256 24.904C181.816 25.072 182.264 25.38 182.6 25.828C182.936 26.2667 183.104 26.8033 183.104 27.438ZM176.86 21.418V24.344H179.744C180.136 24.344 180.463 24.2087 180.724 23.938C180.985 23.658 181.116 23.308 181.116 22.888C181.116 22.4587 180.995 22.1087 180.752 21.838C180.509 21.558 180.201 21.418 179.828 21.418H176.86ZM181.494 27.144C181.494 26.7333 181.363 26.374 181.102 26.066C180.85 25.758 180.528 25.604 180.136 25.604H176.86V28.642H180.038C180.449 28.642 180.794 28.4973 181.074 28.208C181.354 27.9093 181.494 27.5547 181.494 27.144ZM192.901 20.06V30H191.319V25.618H186.307V30H184.739V20.06H186.307V24.218H191.319V20.06H192.901ZM195.143 30V20.06H196.711V30H195.143ZM198.328 24.96C198.328 24.3533 198.435 23.756 198.65 23.168C198.865 22.58 199.177 22.048 199.588 21.572C200.008 21.096 200.512 20.718 201.1 20.438C201.697 20.1487 202.379 20.004 203.144 20.004C204.04 20.004 204.815 20.2047 205.468 20.606C206.121 21.0073 206.607 21.53 206.924 22.174L205.692 23C205.505 22.5987 205.267 22.286 204.978 22.062C204.698 21.8287 204.39 21.6653 204.054 21.572C203.727 21.4693 203.405 21.418 203.088 21.418C202.565 21.418 202.108 21.5253 201.716 21.74C201.324 21.9453 200.993 22.2207 200.722 22.566C200.461 22.9113 200.26 23.2987 200.12 23.728C199.989 24.1573 199.924 24.5867 199.924 25.016C199.924 25.66 200.059 26.262 200.33 26.822C200.61 27.3727 200.988 27.8207 201.464 28.166C201.949 28.502 202.505 28.67 203.13 28.67C203.447 28.67 203.779 28.614 204.124 28.502C204.469 28.39 204.787 28.2173 205.076 27.984C205.365 27.7413 205.599 27.424 205.776 27.032L207.078 27.774C206.873 28.2687 206.551 28.6887 206.112 29.034C205.683 29.3793 205.197 29.6407 204.656 29.818C204.124 29.9953 203.597 30.084 203.074 30.084C202.374 30.084 201.735 29.9393 201.156 29.65C200.577 29.3513 200.078 28.9593 199.658 28.474C199.238 27.9793 198.911 27.4287 198.678 26.822C198.445 26.206 198.328 25.5853 198.328 24.96ZM215.822 21.446H212.518V30H210.936V21.446H207.618V20.06H215.822V21.446ZM217.169 30V20.06H218.737V23.728H220.963C222.055 23.728 222.886 24.0127 223.455 24.582C224.034 25.1513 224.323 25.9073 224.323 26.85C224.323 27.4567 224.197 27.998 223.945 28.474C223.693 28.95 223.324 29.3233 222.839 29.594C222.354 29.8647 221.761 30 221.061 30H217.169ZM218.737 28.698H220.837C221.5 28.698 221.976 28.516 222.265 28.152C222.564 27.7787 222.713 27.3447 222.713 26.85C222.713 26.5327 222.652 26.2387 222.531 25.968C222.41 25.688 222.209 25.464 221.929 25.296C221.658 25.1187 221.29 25.03 220.823 25.03H218.737V28.698Z" fill="white"/>
</svg>
