<svg width="136" height="13" viewBox="0 0 136 13" fill="none" xmlns="http://www.w3.org/2000/svg">
<path d="M5.95644 5.872V6.768H3.97244V8.928H2.96444V6.768H0.980438V5.872H2.96444V3.712H3.97244V5.872H5.95644ZM11.0834 12.144C10.4114 12.144 9.80344 12.032 9.25944 11.808C8.71544 11.584 8.27277 11.2747 7.93144 10.88C7.5901 10.4853 7.37677 10.0267 7.29144 9.504L7.96344 8.896C7.98477 9.26933 8.12877 9.62667 8.39544 9.968C8.6621 10.3093 9.02477 10.5867 9.48344 10.8C9.9421 11.0133 10.4754 11.12 11.0834 11.12C11.6168 11.12 12.0968 11.0293 12.5234 10.848C12.9608 10.6667 13.3021 10.4107 13.5474 10.08C13.8034 9.74933 13.9314 9.36533 13.9314 8.928C13.9314 8.224 13.6008 7.67467 12.9394 7.28C12.2781 6.87467 11.3928 6.672 10.2834 6.672H9.73944V5.728H10.2834C11.3181 5.728 12.1341 5.55733 12.7314 5.216C13.3288 4.87467 13.6274 4.36267 13.6274 3.68C13.6274 3.232 13.5048 2.84267 13.2594 2.512C13.0248 2.18133 12.7048 1.92533 12.2994 1.744C11.9048 1.56267 11.4728 1.472 11.0034 1.472C10.2994 1.472 9.69677 1.62667 9.19544 1.936C8.6941 2.24533 8.3421 2.62933 8.13944 3.088L7.38744 2.352C7.6861 1.776 8.1661 1.32267 8.82744 0.992C9.49944 0.661333 10.2194 0.495999 10.9874 0.495999C11.7128 0.495999 12.3581 0.634666 12.9234 0.912C13.4994 1.18933 13.9474 1.568 14.2674 2.048C14.5981 2.51733 14.7634 3.05067 14.7634 3.648C14.7634 4.29867 14.5714 4.83733 14.1874 5.264C13.8034 5.69067 13.2541 5.98933 12.5394 6.16C13.2968 6.30933 13.9048 6.65067 14.3634 7.184C14.8221 7.71733 15.0514 8.34133 15.0514 9.056C15.0514 9.696 14.8701 10.2453 14.5074 10.704C14.1448 11.1627 13.6594 11.52 13.0514 11.776C12.4541 12.0213 11.7981 12.144 11.0834 12.144ZM24.5552 8.848C24.5552 9.50933 24.3685 10.0853 23.9952 10.576C23.6325 11.0667 23.1472 11.4507 22.5392 11.728C21.9419 11.9947 21.2859 12.128 20.5712 12.128C19.8139 12.128 19.1419 11.9787 18.5552 11.68C17.9685 11.3707 17.5045 10.9653 17.1632 10.464C16.8325 9.96267 16.6672 9.40267 16.6672 8.784C16.6672 8.304 16.7792 7.872 17.0032 7.488C17.2272 7.104 17.5152 6.77867 17.8672 6.512C18.2192 6.24533 18.5765 6.048 18.9392 5.92C18.4379 5.71733 18.0005 5.41333 17.6272 5.008C17.2539 4.592 17.0672 4.10133 17.0672 3.536C17.0672 3.06667 17.1685 2.656 17.3712 2.304C17.5845 1.94133 17.8619 1.63733 18.2032 1.392C18.5552 1.14667 18.9392 0.959999 19.3552 0.832C19.7712 0.704 20.1925 0.639999 20.6192 0.639999C21.1845 0.639999 21.7392 0.752 22.2832 0.976C22.8272 1.18933 23.2752 1.51467 23.6272 1.952C23.9899 2.37867 24.1712 2.90133 24.1712 3.52C24.1712 4.08533 23.9792 4.576 23.5952 4.992C23.2219 5.408 22.7792 5.71733 22.2672 5.92C22.8859 6.13333 23.4192 6.496 23.8672 7.008C24.3259 7.52 24.5552 8.13333 24.5552 8.848ZM18.1552 3.584C18.1552 4 18.2832 4.352 18.5392 4.64C18.7952 4.928 19.1099 5.14667 19.4832 5.296C19.8565 5.44533 20.2299 5.52 20.6032 5.52C20.9872 5.52 21.3659 5.44533 21.7392 5.296C22.1125 5.136 22.4272 4.912 22.6832 4.624C22.9392 4.32533 23.0672 3.968 23.0672 3.552C23.0672 3.14667 22.9499 2.8 22.7152 2.512C22.4805 2.224 22.1712 2.00533 21.7872 1.856C21.4139 1.70667 21.0139 1.632 20.5872 1.632C20.1712 1.632 19.7765 1.712 19.4032 1.872C19.0405 2.02133 18.7419 2.24533 18.5072 2.544C18.2725 2.832 18.1552 3.17867 18.1552 3.584ZM23.4512 8.768C23.4512 8.26667 23.3072 7.84 23.0192 7.488C22.7312 7.12533 22.3632 6.85333 21.9152 6.672C21.4779 6.48 21.0352 6.384 20.5872 6.384C20.1285 6.384 19.6805 6.48533 19.2432 6.688C18.8165 6.88 18.4645 7.15733 18.1872 7.52C17.9205 7.88267 17.7872 8.304 17.7872 8.784C17.7872 9.27467 17.9312 9.70133 18.2192 10.064C18.5072 10.416 18.8699 10.688 19.3072 10.88C19.7445 11.0613 20.1872 11.152 20.6352 11.152C21.0939 11.152 21.5365 11.056 21.9632 10.864C22.4005 10.6613 22.7579 10.384 23.0352 10.032C23.3125 9.66933 23.4512 9.248 23.4512 8.768ZM34.9017 12.16C34.123 12.1387 33.4404 11.952 32.8537 11.6C32.2777 11.248 31.7924 10.7893 31.3977 10.224C31.003 9.648 30.7044 9.02933 30.5017 8.368C30.299 7.696 30.1977 7.04 30.1977 6.4C30.1977 5.71733 30.3044 5.03467 30.5177 4.352C30.7417 3.66933 31.0564 3.05067 31.4617 2.496C31.867 1.93067 32.3577 1.48267 32.9337 1.152C33.5204 0.810666 34.1764 0.639999 34.9017 0.639999C35.6697 0.639999 36.347 0.821333 36.9337 1.184C37.5204 1.54667 38.011 2.016 38.4057 2.592C38.8004 3.168 39.0937 3.792 39.2857 4.464C39.4884 5.136 39.5897 5.78133 39.5897 6.4C39.5897 7.09333 39.483 7.78133 39.2697 8.464C39.0564 9.136 38.7417 9.74933 38.3257 10.304C37.9204 10.8587 37.4297 11.3067 36.8537 11.648C36.2777 11.9787 35.627 12.1493 34.9017 12.16ZM31.3337 6.4C31.3444 6.95467 31.4297 7.51467 31.5897 8.08C31.7497 8.63467 31.9737 9.14667 32.2617 9.616C32.5604 10.0747 32.9284 10.448 33.3657 10.736C33.803 11.0133 34.315 11.152 34.9017 11.152C35.499 11.152 36.0217 11.0027 36.4697 10.704C36.9177 10.4053 37.291 10.016 37.5897 9.536C37.8884 9.056 38.107 8.53867 38.2457 7.984C38.395 7.42933 38.4697 6.90133 38.4697 6.4C38.4697 5.84533 38.3897 5.29067 38.2297 4.736C38.0697 4.17067 37.835 3.65867 37.5257 3.2C37.2164 2.73067 36.843 2.35733 36.4057 2.08C35.9684 1.792 35.467 1.648 34.9017 1.648C34.2937 1.648 33.7657 1.80267 33.3177 2.112C32.8697 2.41067 32.4964 2.8 32.1977 3.28C31.9097 3.76 31.691 4.27733 31.5417 4.832C31.403 5.376 31.3337 5.89867 31.3337 6.4ZM41.0712 4.464C41.0712 3.73867 41.2472 3.08267 41.5992 2.496C41.9619 1.89867 42.4472 1.42933 43.0552 1.088C43.6632 0.735999 44.3405 0.559999 45.0872 0.559999C45.8872 0.559999 46.5912 0.752 47.1992 1.136C47.8179 1.50933 48.2979 2.05333 48.6392 2.768C48.9912 3.472 49.1672 4.31467 49.1672 5.296C49.1672 6.84267 48.9912 8.12267 48.6392 9.136C48.2979 10.1493 47.8125 10.9067 47.1832 11.408C46.5539 11.9093 45.8179 12.16 44.9752 12.16C44.2285 12.16 43.5565 11.9733 42.9592 11.6C42.3619 11.216 41.9085 10.6933 41.5992 10.032L42.2872 9.408C42.5112 9.94133 42.8685 10.3733 43.3592 10.704C43.8499 11.024 44.3939 11.184 44.9912 11.184C45.9299 11.184 46.6872 10.752 47.2632 9.888C47.8392 9.024 48.1272 7.808 48.1272 6.24C47.8925 6.85867 47.4872 7.36 46.9112 7.744C46.3352 8.11733 45.6899 8.304 44.9752 8.304C44.2499 8.304 43.5885 8.13333 42.9912 7.792C42.4045 7.45067 41.9352 6.992 41.5832 6.416C41.2419 5.82933 41.0712 5.17867 41.0712 4.464ZM45.0712 1.504C44.5272 1.504 44.0312 1.63733 43.5832 1.904C43.1459 2.17067 42.7939 2.528 42.5272 2.976C42.2605 3.424 42.1272 3.91467 42.1272 4.448C42.1272 4.992 42.2605 5.488 42.5272 5.936C42.7939 6.37333 43.1512 6.73067 43.5992 7.008C44.0579 7.27467 44.5539 7.408 45.0872 7.408C45.6312 7.408 46.1272 7.27467 46.5752 7.008C47.0232 6.73067 47.3805 6.37333 47.6472 5.936C47.9245 5.488 48.0632 4.99733 48.0632 4.464C48.0632 3.93067 47.9245 3.44 47.6472 2.992C47.3699 2.544 47.0072 2.18667 46.5592 1.92C46.1112 1.64267 45.6152 1.504 45.0712 1.504ZM56.5693 1.648H50.4413V0.639999H58.2973L52.5373 12H51.3213L56.5693 1.648ZM71.0552 8.848C71.0552 9.50933 70.8685 10.0853 70.4952 10.576C70.1325 11.0667 69.6472 11.4507 69.0392 11.728C68.4419 11.9947 67.7859 12.128 67.0712 12.128C66.3139 12.128 65.6419 11.9787 65.0552 11.68C64.4685 11.3707 64.0045 10.9653 63.6632 10.464C63.3325 9.96267 63.1672 9.40267 63.1672 8.784C63.1672 8.304 63.2792 7.872 63.5032 7.488C63.7272 7.104 64.0152 6.77867 64.3672 6.512C64.7192 6.24533 65.0765 6.048 65.4392 5.92C64.9379 5.71733 64.5005 5.41333 64.1272 5.008C63.7539 4.592 63.5672 4.10133 63.5672 3.536C63.5672 3.06667 63.6685 2.656 63.8712 2.304C64.0845 1.94133 64.3619 1.63733 64.7032 1.392C65.0552 1.14667 65.4392 0.959999 65.8552 0.832C66.2712 0.704 66.6925 0.639999 67.1192 0.639999C67.6845 0.639999 68.2392 0.752 68.7832 0.976C69.3272 1.18933 69.7752 1.51467 70.1272 1.952C70.4899 2.37867 70.6712 2.90133 70.6712 3.52C70.6712 4.08533 70.4792 4.576 70.0952 4.992C69.7219 5.408 69.2792 5.71733 68.7672 5.92C69.3859 6.13333 69.9192 6.496 70.3672 7.008C70.8259 7.52 71.0552 8.13333 71.0552 8.848ZM64.6552 3.584C64.6552 4 64.7832 4.352 65.0392 4.64C65.2952 4.928 65.6099 5.14667 65.9832 5.296C66.3565 5.44533 66.7299 5.52 67.1032 5.52C67.4872 5.52 67.8659 5.44533 68.2392 5.296C68.6125 5.136 68.9272 4.912 69.1832 4.624C69.4392 4.32533 69.5672 3.968 69.5672 3.552C69.5672 3.14667 69.4499 2.8 69.2152 2.512C68.9805 2.224 68.6712 2.00533 68.2872 1.856C67.9139 1.70667 67.5139 1.632 67.0872 1.632C66.6712 1.632 66.2765 1.712 65.9032 1.872C65.5405 2.02133 65.2419 2.24533 65.0072 2.544C64.7725 2.832 64.6552 3.17867 64.6552 3.584ZM69.9512 8.768C69.9512 8.26667 69.8072 7.84 69.5192 7.488C69.2312 7.12533 68.8632 6.85333 68.4152 6.672C67.9779 6.48 67.5352 6.384 67.0872 6.384C66.6285 6.384 66.1805 6.48533 65.7432 6.688C65.3165 6.88 64.9645 7.15733 64.6872 7.52C64.4205 7.88267 64.2872 8.304 64.2872 8.784C64.2872 9.27467 64.4312 9.70133 64.7192 10.064C65.0072 10.416 65.3699 10.688 65.8072 10.88C66.2445 11.0613 66.6872 11.152 67.1352 11.152C67.5939 11.152 68.0365 11.056 68.4632 10.864C68.9005 10.6613 69.2579 10.384 69.5352 10.032C69.8125 9.66933 69.9512 9.248 69.9512 8.768ZM80.5396 8.848C80.5396 9.50933 80.3529 10.0853 79.9796 10.576C79.6169 11.0667 79.1316 11.4507 78.5236 11.728C77.9262 11.9947 77.2702 12.128 76.5556 12.128C75.7982 12.128 75.1262 11.9787 74.5396 11.68C73.9529 11.3707 73.4889 10.9653 73.1476 10.464C72.8169 9.96267 72.6516 9.40267 72.6516 8.784C72.6516 8.304 72.7636 7.872 72.9876 7.488C73.2116 7.104 73.4996 6.77867 73.8516 6.512C74.2036 6.24533 74.5609 6.048 74.9236 5.92C74.4222 5.71733 73.9849 5.41333 73.6116 5.008C73.2382 4.592 73.0516 4.10133 73.0516 3.536C73.0516 3.06667 73.1529 2.656 73.3556 2.304C73.5689 1.94133 73.8462 1.63733 74.1876 1.392C74.5396 1.14667 74.9236 0.959999 75.3396 0.832C75.7556 0.704 76.1769 0.639999 76.6036 0.639999C77.1689 0.639999 77.7236 0.752 78.2676 0.976C78.8116 1.18933 79.2596 1.51467 79.6116 1.952C79.9742 2.37867 80.1556 2.90133 80.1556 3.52C80.1556 4.08533 79.9636 4.576 79.5796 4.992C79.2062 5.408 78.7636 5.71733 78.2516 5.92C78.8702 6.13333 79.4036 6.496 79.8516 7.008C80.3102 7.52 80.5396 8.13333 80.5396 8.848ZM74.1396 3.584C74.1396 4 74.2676 4.352 74.5236 4.64C74.7796 4.928 75.0942 5.14667 75.4676 5.296C75.8409 5.44533 76.2142 5.52 76.5876 5.52C76.9716 5.52 77.3502 5.44533 77.7236 5.296C78.0969 5.136 78.4116 4.912 78.6676 4.624C78.9236 4.32533 79.0516 3.968 79.0516 3.552C79.0516 3.14667 78.9342 2.8 78.6996 2.512C78.4649 2.224 78.1556 2.00533 77.7716 1.856C77.3982 1.70667 76.9982 1.632 76.5716 1.632C76.1556 1.632 75.7609 1.712 75.3876 1.872C75.0249 2.02133 74.7262 2.24533 74.4916 2.544C74.2569 2.832 74.1396 3.17867 74.1396 3.584ZM79.4356 8.768C79.4356 8.26667 79.2916 7.84 79.0036 7.488C78.7156 7.12533 78.3476 6.85333 77.8996 6.672C77.4622 6.48 77.0196 6.384 76.5716 6.384C76.1129 6.384 75.6649 6.48533 75.2276 6.688C74.8009 6.88 74.4489 7.15733 74.1716 7.52C73.9049 7.88267 73.7716 8.304 73.7716 8.784C73.7716 9.27467 73.9156 9.70133 74.2036 10.064C74.4916 10.416 74.8542 10.688 75.2916 10.88C75.7289 11.0613 76.1716 11.152 76.6196 11.152C77.0782 11.152 77.5209 11.056 77.9476 10.864C78.3849 10.6613 78.7422 10.384 79.0196 10.032C79.2969 9.66933 79.4356 9.248 79.4356 8.768ZM90.0239 8.848C90.0239 9.50933 89.8373 10.0853 89.4639 10.576C89.1013 11.0667 88.6159 11.4507 88.0079 11.728C87.4106 11.9947 86.7546 12.128 86.0399 12.128C85.2826 12.128 84.6106 11.9787 84.0239 11.68C83.4373 11.3707 82.9733 10.9653 82.6319 10.464C82.3013 9.96267 82.1359 9.40267 82.1359 8.784C82.1359 8.304 82.2479 7.872 82.4719 7.488C82.6959 7.104 82.9839 6.77867 83.3359 6.512C83.6879 6.24533 84.0453 6.048 84.4079 5.92C83.9066 5.71733 83.4693 5.41333 83.0959 5.008C82.7226 4.592 82.5359 4.10133 82.5359 3.536C82.5359 3.06667 82.6373 2.656 82.8399 2.304C83.0533 1.94133 83.3306 1.63733 83.6719 1.392C84.0239 1.14667 84.4079 0.959999 84.8239 0.832C85.2399 0.704 85.6613 0.639999 86.0879 0.639999C86.6533 0.639999 87.2079 0.752 87.7519 0.976C88.2959 1.18933 88.7439 1.51467 89.0959 1.952C89.4586 2.37867 89.6399 2.90133 89.6399 3.52C89.6399 4.08533 89.4479 4.576 89.0639 4.992C88.6906 5.408 88.2479 5.71733 87.7359 5.92C88.3546 6.13333 88.8879 6.496 89.3359 7.008C89.7946 7.52 90.0239 8.13333 90.0239 8.848ZM83.6239 3.584C83.6239 4 83.7519 4.352 84.0079 4.64C84.2639 4.928 84.5786 5.14667 84.9519 5.296C85.3253 5.44533 85.6986 5.52 86.0719 5.52C86.4559 5.52 86.8346 5.44533 87.2079 5.296C87.5813 5.136 87.8959 4.912 88.1519 4.624C88.4079 4.32533 88.5359 3.968 88.5359 3.552C88.5359 3.14667 88.4186 2.8 88.1839 2.512C87.9493 2.224 87.6399 2.00533 87.2559 1.856C86.8826 1.70667 86.4826 1.632 86.0559 1.632C85.6399 1.632 85.2453 1.712 84.8719 1.872C84.5093 2.02133 84.2106 2.24533 83.9759 2.544C83.7413 2.832 83.6239 3.17867 83.6239 3.584ZM88.9199 8.768C88.9199 8.26667 88.7759 7.84 88.4879 7.488C88.1999 7.12533 87.8319 6.85333 87.3839 6.672C86.9466 6.48 86.5039 6.384 86.0559 6.384C85.5973 6.384 85.1493 6.48533 84.7119 6.688C84.2853 6.88 83.9333 7.15733 83.6559 7.52C83.3893 7.88267 83.2559 8.304 83.2559 8.784C83.2559 9.27467 83.3999 9.70133 83.6879 10.064C83.9759 10.416 84.3386 10.688 84.7759 10.88C85.2133 11.0613 85.6559 11.152 86.1039 11.152C86.5626 11.152 87.0053 11.056 87.4319 10.864C87.8693 10.6613 88.2266 10.384 88.5039 10.032C88.7813 9.66933 88.9199 9.248 88.9199 8.768ZM95.6024 4.464C95.6024 3.73867 95.7784 3.08267 96.1304 2.496C96.4931 1.89867 96.9784 1.42933 97.5864 1.088C98.1944 0.735999 98.8718 0.559999 99.6184 0.559999C100.418 0.559999 101.122 0.752 101.73 1.136C102.349 1.50933 102.829 2.05333 103.17 2.768C103.522 3.472 103.698 4.31467 103.698 5.296C103.698 6.84267 103.522 8.12267 103.17 9.136C102.829 10.1493 102.344 10.9067 101.714 11.408C101.085 11.9093 100.349 12.16 99.5064 12.16C98.7598 12.16 98.0878 11.9733 97.4904 11.6C96.8931 11.216 96.4398 10.6933 96.1304 10.032L96.8184 9.408C97.0424 9.94133 97.3998 10.3733 97.8904 10.704C98.3811 11.024 98.9251 11.184 99.5224 11.184C100.461 11.184 101.218 10.752 101.794 9.888C102.37 9.024 102.658 7.808 102.658 6.24C102.424 6.85867 102.018 7.36 101.442 7.744C100.866 8.11733 100.221 8.304 99.5064 8.304C98.7811 8.304 98.1198 8.13333 97.5224 7.792C96.9358 7.45067 96.4664 6.992 96.1144 6.416C95.7731 5.82933 95.6024 5.17867 95.6024 4.464ZM99.6024 1.504C99.0584 1.504 98.5624 1.63733 98.1144 1.904C97.6771 2.17067 97.3251 2.528 97.0584 2.976C96.7918 3.424 96.6584 3.91467 96.6584 4.448C96.6584 4.992 96.7918 5.488 97.0584 5.936C97.3251 6.37333 97.6824 6.73067 98.1304 7.008C98.5891 7.27467 99.0851 7.408 99.6184 7.408C100.162 7.408 100.658 7.27467 101.106 7.008C101.554 6.73067 101.912 6.37333 102.178 5.936C102.456 5.488 102.594 4.99733 102.594 4.464C102.594 3.93067 102.456 3.44 102.178 2.992C101.901 2.544 101.538 2.18667 101.09 1.92C100.642 1.64267 100.146 1.504 99.6024 1.504ZM105.307 12C105.286 11.1147 105.387 10.3573 105.611 9.728C105.835 9.09867 106.15 8.57067 106.555 8.144C106.971 7.71733 107.462 7.35467 108.027 7.056C108.432 6.832 108.854 6.62933 109.291 6.448C109.728 6.256 110.134 6.048 110.507 5.824C110.88 5.58933 111.179 5.312 111.403 4.992C111.638 4.672 111.755 4.26667 111.755 3.776C111.755 3.37067 111.664 2.99733 111.483 2.656C111.312 2.31467 111.046 2.04267 110.683 1.84C110.32 1.62667 109.862 1.52 109.307 1.52C108.752 1.52 108.267 1.61067 107.851 1.792C107.435 1.97333 107.083 2.192 106.795 2.448C106.507 2.704 106.283 2.93867 106.123 3.152L105.403 2.448C105.467 2.37333 105.595 2.23467 105.787 2.032C105.99 1.81867 106.256 1.59467 106.587 1.36C106.918 1.12533 107.318 0.922666 107.787 0.752C108.267 0.581333 108.811 0.495999 109.419 0.495999C110.198 0.495999 110.848 0.650666 111.371 0.959999C111.904 1.25867 112.299 1.65867 112.555 2.16C112.822 2.65067 112.955 3.184 112.955 3.76C112.955 4.32533 112.843 4.8 112.619 5.184C112.406 5.568 112.123 5.89333 111.771 6.16C111.43 6.42667 111.056 6.656 110.651 6.848C110.256 7.04 109.883 7.22133 109.531 7.392C108.848 7.70133 108.304 8.00533 107.899 8.304C107.494 8.60267 107.19 8.90133 106.987 9.2C106.795 9.49867 106.667 9.79733 106.603 10.096C106.539 10.3947 106.502 10.6987 106.491 11.008H112.971V12H105.307ZM118.618 4.464C118.618 3.73867 118.794 3.08267 119.146 2.496C119.509 1.89867 119.994 1.42933 120.602 1.088C121.21 0.735999 121.887 0.559999 122.634 0.559999C123.434 0.559999 124.138 0.752 124.746 1.136C125.365 1.50933 125.845 2.05333 126.186 2.768C126.538 3.472 126.714 4.31467 126.714 5.296C126.714 6.84267 126.538 8.12267 126.186 9.136C125.845 10.1493 125.359 10.9067 124.73 11.408C124.101 11.9093 123.365 12.16 122.522 12.16C121.775 12.16 121.103 11.9733 120.506 11.6C119.909 11.216 119.455 10.6933 119.146 10.032L119.834 9.408C120.058 9.94133 120.415 10.3733 120.906 10.704C121.397 11.024 121.941 11.184 122.538 11.184C123.477 11.184 124.234 10.752 124.81 9.888C125.386 9.024 125.674 7.808 125.674 6.24C125.439 6.85867 125.034 7.36 124.458 7.744C123.882 8.11733 123.237 8.304 122.522 8.304C121.797 8.304 121.135 8.13333 120.538 7.792C119.951 7.45067 119.482 6.992 119.13 6.416C118.789 5.82933 118.618 5.17867 118.618 4.464ZM122.618 1.504C122.074 1.504 121.578 1.63733 121.13 1.904C120.693 2.17067 120.341 2.528 120.074 2.976C119.807 3.424 119.674 3.91467 119.674 4.448C119.674 4.992 119.807 5.488 120.074 5.936C120.341 6.37333 120.698 6.73067 121.146 7.008C121.605 7.27467 122.101 7.408 122.634 7.408C123.178 7.408 123.674 7.27467 124.122 7.008C124.57 6.73067 124.927 6.37333 125.194 5.936C125.471 5.488 125.61 4.99733 125.61 4.464C125.61 3.93067 125.471 3.44 125.194 2.992C124.917 2.544 124.554 2.18667 124.106 1.92C123.658 1.64267 123.162 1.504 122.618 1.504ZM128.323 12C128.301 11.1147 128.403 10.3573 128.627 9.728C128.851 9.09867 129.165 8.57067 129.571 8.144C129.987 7.71733 130.477 7.35467 131.043 7.056C131.448 6.832 131.869 6.62933 132.307 6.448C132.744 6.256 133.149 6.048 133.523 5.824C133.896 5.58933 134.195 5.312 134.419 4.992C134.653 4.672 134.771 4.26667 134.771 3.776C134.771 3.37067 134.68 2.99733 134.499 2.656C134.328 2.31467 134.061 2.04267 133.699 1.84C133.336 1.62667 132.877 1.52 132.323 1.52C131.768 1.52 131.283 1.61067 130.867 1.792C130.451 1.97333 130.099 2.192 129.811 2.448C129.523 2.704 129.299 2.93867 129.139 3.152L128.419 2.448C128.483 2.37333 128.611 2.23467 128.803 2.032C129.005 1.81867 129.272 1.59467 129.603 1.36C129.933 1.12533 130.333 0.922666 130.803 0.752C131.283 0.581333 131.827 0.495999 132.435 0.495999C133.213 0.495999 133.864 0.650666 134.387 0.959999C134.92 1.25867 135.315 1.65867 135.571 2.16C135.837 2.65067 135.971 3.184 135.971 3.76C135.971 4.32533 135.859 4.8 135.635 5.184C135.421 5.568 135.139 5.89333 134.787 6.16C134.445 6.42667 134.072 6.656 133.667 6.848C133.272 7.04 132.899 7.22133 132.547 7.392C131.864 7.70133 131.32 8.00533 130.915 8.304C130.509 8.60267 130.205 8.90133 130.003 9.2C129.811 9.49867 129.683 9.79733 129.619 10.096C129.555 10.3947 129.517 10.6987 129.507 11.008H135.987V12H128.323Z" fill="black"/>
</svg>
